# File created by Blade
# Date/Time:  Wed Sep 24 19:10:19 2014
# Frame Rate: 120.000 fps
#------------------------------------------------------
:FULLY-SPECIFIED
:DEGREES
3502
root -8.096934 34.368861 -4.671081 49.476419 27.564628 36.208748
Spine -12.039372 0.670731 -7.386574
Head -13.978993 18.407255 -15.169866
LeftShoulder -3.454524 6.747288 12.249328
LeftArm 36.177941 -5.715566 -89.932646
LeftForeArm 6.595627 -0.000000 84.695312
LeftHand -29.868647 -0.000000 40.409300
LeftHandThumb1 -26.253704 0.000000 33.147579
RightShoulder -12.631007 11.805696 -23.733320
RightArm -13.146866 -22.157813 72.697097
RightForeArm -20.653001 -0.000000 35.890646
RightHand -4.065904 -0.000000 9.014506
RightHandThumb1 -24.326973 -0.000000 -32.862282
LeftUpLeg -37.176042 27.035579 10.414137
LeftLeg 84.861093 -0.000000 -0.000000
LeftFoot 30.755900 22.782156 -23.421276
LeftToeBase 7.427150 -0.000000 -0.000000
RightUpLeg -39.015261 -26.711931 -13.492326
RightLeg 16.623565 -0.000000 -0.000000
RightFoot -9.287305 -30.653847 -4.914747
RightToeBase 0.110971 -0.000000 -0.000000
3503
root -8.123444 34.367912 -4.678072 49.613578 28.299179 36.720425
Spine -11.588669 0.050317 -7.021928
Head -14.217054 18.217088 -15.170288
LeftShoulder -3.128939 6.481702 12.257343
LeftArm 36.147740 -5.906109 -90.155069
LeftForeArm 6.525602 -0.000000 84.662299
LeftHand -29.620307 -0.000000 40.269670
LeftHandThumb1 -26.253704 0.000000 33.147579
RightShoulder -12.616083 11.866728 -23.801255
RightArm -13.328679 -22.128249 72.575299
RightForeArm -20.592254 0.000000 35.689865
RightHand -3.992757 -0.000000 8.975366
RightHandThumb1 -24.326973 -0.000000 -32.862282
LeftUpLeg -38.256045 27.689180 9.876567
LeftLeg 84.397513 -0.000000 -0.000000
LeftFoot 30.781522 22.788235 -23.674123
LeftToeBase 7.504386 -0.000000 -0.000000
RightUpLeg -38.546546 -26.729529 -13.853994
RightLeg 16.887570 -0.000000 -0.000000
RightFoot -9.378791 -31.376938 -4.626926
RightToeBase 0.241469 -0.000000 -0.000000
3504
root -8.155120 34.364875 -4.688085 49.845075 29.082644 37.282965
Spine -11.208894 -0.623758 -6.676285
Head -14.420528 18.020537 -15.126065
LeftShoulder -2.789750 6.290872 12.279349
LeftArm 36.231568 -6.083896 -90.400221
LeftForeArm 6.379376 -0.000000 84.636462
LeftHand -29.445967 -0.000000 40.280137
LeftHandThumb1 -26.253704 0.000000 33.147579
RightShoulder -12.632162 11.876178 -23.847639
RightArm -13.479558 -22.146707 72.424430
RightForeArm -20.547075 -0.000000 35.523010
RightHand -4.000927 -0.000000 9.025944
RightHandThumb1 -24.326973 -0.000000 -32.862282
LeftUpLeg -39.558031 28.413009 9.198669
LeftLeg 84.079577 -0.000000 -0.000000
LeftFoot 30.887745 22.819548 -24.220005
LeftToeBase 7.110297 -0.000000 -0.000000
RightUpLeg -38.153927 -26.797130 -14.177219
RightLeg 17.211211 -0.000000 -0.000000
RightFoot -9.504854 -32.174071 -4.291300
RightToeBase 0.330702 -0.000000 -0.000000
3505
root -8.191539 34.358796 -4.698775 50.120536 29.870411 37.853660
Spine -10.868377 -1.301086 -6.363863
Head -14.622459 17.788775 -15.044051
LeftShoulder -2.463807 6.136054 12.308022
LeftArm 36.376014 -6.274128 -90.653799
LeftForeArm 6.297528 -0.000000 84.611526
LeftHand -29.305453 -0.000000 40.198178
LeftHandThumb1 -26.253704 0.000000 33.147579
RightShoulder -12.666970 11.847695 -23.871439
RightArm -13.606405 -22.141775 72.270196
RightForeArm -20.524981 0.000000 35.362391
RightHand -4.011192 -0.000000 9.087738
RightHandThumb1 -24.326973 -0.000000 -32.862282
LeftUpLeg -41.021967 29.283824 8.381116
LeftLeg 83.883534 -0.000000 -0.000000
LeftFoot 30.992592 22.714215 -24.436646
LeftToeBase 7.162149 -0.000000 -0.000000
RightUpLeg -37.829491 -26.877934 -14.470014
RightLeg 17.603538 -0.000000 -0.000000
RightFoot -9.687961 -32.939670 -3.914936
RightToeBase 0.408677 -0.000000 -0.000000
3506
root -8.227316 34.355482 -4.714558 50.484219 30.620898 38.526520
Spine -10.540515 -1.986457 -6.168829
Head -14.855806 17.531290 -14.907784
LeftShoulder -2.156805 5.950505 12.337097
LeftArm 36.561464 -6.416667 -90.853283
LeftForeArm 6.191598 -0.000000 84.548018
LeftHand -29.210323 -0.000000 40.239894
LeftHandThumb1 -26.253704 0.000000 33.147579
RightShoulder -12.753792 11.840541 -23.908403
RightArm -13.788119 -22.126388 72.153007
RightForeArm -20.588788 -0.000000 35.221608
RightHand -4.050921 0.000000 9.120274
RightHandThumb1 -24.326973 -0.000000 -32.862282
LeftUpLeg -42.619382 30.142177 7.330772
LeftLeg 83.780537 -0.000000 -0.000000
LeftFoot 30.996981 22.713116 -24.678214
LeftToeBase 7.397680 -0.000000 -0.000000
RightUpLeg -37.557589 -27.075882 -14.793044
RightLeg 18.016839 -0.000000 -0.000000
RightFoot -9.914803 -33.606313 -3.496616
RightToeBase 0.426616 -0.000000 -0.000000
3507
root -8.264820 34.349480 -4.732324 50.882496 31.375074 39.212608
Spine -10.225704 -2.657726 -5.987877
Head -15.095820 17.273304 -14.767359
LeftShoulder -1.898956 5.773455 12.370438
LeftArm 36.834828 -6.497088 -91.063125
LeftForeArm 6.124400 -0.000000 84.416406
LeftHand -29.177044 -0.000000 40.311118
LeftHandThumb1 -26.253704 0.000000 33.147579
RightShoulder -12.855060 11.805551 -23.929464
RightArm -14.009113 -22.162964 72.008134
RightForeArm -20.520045 -0.000000 35.175314
RightHand -4.073326 0.000000 9.171163
RightHandThumb1 -24.326973 -0.000000 -32.862282
LeftUpLeg -44.356712 31.059153 6.151391
LeftLeg 83.800361 -0.000000 -0.000000
LeftFoot 31.129885 22.699711 -24.725549
LeftToeBase 7.251182 -0.000000 -0.000000
RightUpLeg -37.348692 -27.361494 -15.041153
RightLeg 18.453778 -0.000000 -0.000000
RightFoot -10.086706 -34.257893 -3.252000
RightToeBase 0.522475 -0.000000 -0.000000
3508
root -8.303810 34.342220 -4.751487 51.303500 32.093295 39.878951
Spine -9.952440 -3.305218 -5.825545
Head -15.324786 17.030822 -14.652486
LeftShoulder -1.712395 5.615464 12.415096
LeftArm 37.154563 -6.517885 -91.275682
LeftForeArm 6.115748 0.000000 84.242376
LeftHand -29.223959 -0.000000 40.549121
LeftHandThumb1 -26.253704 0.000000 33.147579
RightShoulder -12.902058 11.735443 -23.949901
RightArm -14.250224 -22.032795 71.890810
RightForeArm -20.545359 -0.000000 35.129645
RightHand -4.165941 -0.000000 9.054332
RightHandThumb1 -24.326973 -0.000000 -32.862282
LeftUpLeg -46.212647 32.014081 4.863658
LeftLeg 83.921180 -0.000000 -0.000000
LeftFoot 31.455890 22.623068 -24.690788
LeftToeBase 6.954346 -0.000000 -0.000000
RightUpLeg -37.206573 -27.718628 -15.208004
RightLeg 18.866854 -0.000000 -0.000000
RightFoot -10.258043 -34.802254 -3.036469
RightToeBase 0.637223 -0.000000 -0.000000
3509
root -8.339564 34.336467 -4.773816 51.751798 32.749738 40.579274
Spine -9.686864 -3.926651 -5.740566
Head -15.550092 16.786225 -14.515788
LeftShoulder -1.529950 5.410826 12.516352
LeftArm 37.405063 -6.498115 -91.448603
LeftForeArm 6.071229 -0.000000 84.050901
LeftHand -29.174994 -0.000000 40.754887
LeftHandThumb1 -26.253704 0.000000 33.147579
RightShoulder -12.964470 11.641905 -23.973562
RightArm -14.485321 -21.820281 71.776719
RightForeArm -20.642396 0.000000 35.071672
RightHand -4.066356 -0.000000 9.203381
RightHandThumb1 -24.326973 -0.000000 -32.862282
LeftUpLeg -48.149818 32.937991 3.435287
LeftLeg 84.190187 -0.000000 -0.000000
LeftFoot 31.748974 22.397528 -24.640359
LeftToeBase 6.896949 -0.000000 -0.000000
RightUpLeg -37.061337 -28.055453 -15.448594
RightLeg 19.278972 -0.000000 -0.000000
RightFoot -10.480848 -35.289760 -2.724759
RightToeBase 0.662639 -0.000000 -0.000000
3510
root -8.378132 34.326591 -4.794922 52.159851 33.401548 41.189237
Spine -9.426591 -4.470408 -5.593588
Head -15.767924 16.527185 -14.396943
LeftShoulder -1.340892 5.180374 12.680021
LeftArm 37.600172 -6.512300 -91.775312
LeftForeArm 5.960458 0.000000 83.890242
LeftHand -29.124918 -0.000000 40.768875
LeftHandThumb1 -26.253704 0.000000 33.147579
RightShoulder -13.029658 11.559755 -24.018087
RightArm -14.772230 -21.603514 71.660736
RightForeArm -20.566824 0.000000 35.059592
RightHand -4.165966 -0.000000 9.155354
RightHandThumb1 -24.326973 -0.000000 -32.862282
LeftUpLeg -50.168160 33.863003 1.991146
LeftLeg 84.619372 -0.000000 -0.000000
LeftFoot 31.948066 22.102627 -24.594958
LeftToeBase 6.970017 -0.000000 -0.000000
RightUpLeg -36.920423 -28.280873 -15.637788
RightLeg 19.670155 -0.000000 -0.000000
RightFoot -10.696999 -35.841617 -2.394461
RightToeBase 0.712982 -0.000000 -0.000000
3511
root -8.417210 34.317296 -4.815854 52.588838 34.039848 41.765244
Spine -9.227242 -5.011199 -5.408082
Head -15.932518 16.300404 -14.301066
LeftShoulder -1.171515 4.948545 12.807833
LeftArm 37.744932 -6.499775 -91.955401
LeftForeArm 5.773171 -0.000000 83.760172
LeftHand -29.048561 0.000000 40.855102
LeftHandThumb1 -26.253704 0.000000 33.147579
RightShoulder -13.048606 11.417810 -24.081726
RightArm -15.028397 -21.317820 71.553539
RightForeArm -20.561140 -0.000000 35.029610
RightHand -4.131722 -0.000000 9.131507
RightHandThumb1 -24.326973 -0.000000 -32.862282
LeftUpLeg -52.270489 34.728384 0.510303
LeftLeg 85.139264 -0.000000 -0.000000
LeftFoot 32.231189 21.725176 -24.600020
LeftToeBase 7.046832 -0.000000 -0.000000
RightUpLeg -36.833893 -28.613785 -15.710247
RightLeg 19.989072 -0.000000 -0.000000
RightFoot -10.784158 -36.405300 -2.259340
RightToeBase 0.660036 -0.000000 -0.000000
